<svg xmlns="http://www.w3.org/2000/svg" xmlns:xlink="http://www.w3.org/1999/xlink" width="500" zoomAndPan="magnify" viewBox="0 0 375 374.999991" height="500" preserveAspectRatio="xMidYMid meet" version="1.0"><defs><g/></defs><rect x="-37.5" width="450" fill="#ffffff" y="-37.499999" height="449.999989" fill-opacity="1"/><rect x="-37.5" width="450" fill="#ffffff" y="-37.499999" height="449.999989" fill-opacity="1"/><g fill="#ff3131" fill-opacity="1"><g transform="translate(15.639345, 203.237711)"><g><path d="M 28.90625 -50.34375 C 36.25 -50.34375 42.050781 -48.507812 46.3125 -44.84375 C 50.582031 -41.175781 52.71875 -35.9375 52.71875 -29.125 L 37.546875 -29.125 C 37.546875 -32 36.789062 -34.273438 35.28125 -35.953125 C 33.769531 -37.640625 31.625 -38.484375 28.84375 -38.484375 C 25.625 -38.484375 23.257812 -37.472656 21.75 -35.453125 C 20.238281 -33.441406 19.484375 -30.640625 19.484375 -27.046875 L 19.484375 -22.4375 C 19.484375 -18.894531 20.238281 -16.101562 21.75 -14.0625 C 23.257812 -12.019531 25.578125 -11 28.703125 -11 C 31.765625 -11 34.085938 -11.789062 35.671875 -13.375 C 37.253906 -14.957031 38.046875 -17.1875 38.046875 -20.0625 L 52.71875 -20.0625 C 52.71875 -13.300781 50.644531 -8.125 46.5 -4.53125 C 42.351562 -0.9375 36.488281 0.859375 28.90625 0.859375 C 20.46875 0.859375 14.078125 -1.296875 9.734375 -5.609375 C 5.398438 -9.921875 3.234375 -16.296875 3.234375 -24.734375 C 3.234375 -33.179688 5.398438 -39.5625 9.734375 -43.875 C 14.078125 -48.1875 20.46875 -50.34375 28.90625 -50.34375 Z M 28.90625 -50.34375 "/></g></g></g><g fill="#ff3131" fill-opacity="1"><g transform="translate(71.591187, 203.237711)"><g><path d="M 4.8125 -42.4375 L 4.8125 -52.140625 L 19.125 -52.140625 L 19.125 -42.4375 Z M 4.8125 0 L 4.8125 -37.96875 L 19.125 -37.96875 L 19.125 0 Z M 4.8125 0 "/></g></g></g><g fill="#ff3131" fill-opacity="1"><g transform="translate(95.539731, 203.237711)"><g><path d="M 30.5 -38.84375 C 34.90625 -38.84375 38.210938 -37.617188 40.421875 -35.171875 C 42.628906 -32.722656 43.734375 -29.195312 43.734375 -24.59375 L 43.734375 0 L 29.421875 0 L 29.421875 -22.875 C 29.421875 -24.5 29 -25.800781 28.15625 -26.78125 C 27.320312 -27.769531 26.132812 -28.265625 24.59375 -28.265625 C 22.820312 -28.265625 21.382812 -27.6875 20.28125 -26.53125 C 19.175781 -25.382812 18.625 -23.972656 18.625 -22.296875 L 18.625 0 L 4.3125 0 L 4.3125 -37.96875 L 16.03125 -37.96875 L 16.96875 -32.21875 C 18.457031 -34.226562 20.410156 -35.832031 22.828125 -37.03125 C 25.253906 -38.238281 27.8125 -38.84375 30.5 -38.84375 Z M 30.5 -38.84375 "/></g></g></g><g fill="#ff3131" fill-opacity="1"><g transform="translate(143.508718, 203.237711)"><g><path d="M 23.953125 -38.84375 C 30.898438 -38.84375 36.207031 -37.210938 39.875 -33.953125 C 43.539062 -30.691406 45.375 -25.703125 45.375 -18.984375 L 45.375 -16.546875 L 16.90625 -16.546875 C 16.90625 -13.804688 17.515625 -11.738281 18.734375 -10.34375 C 19.953125 -8.957031 21.882812 -8.265625 24.53125 -8.265625 C 26.925781 -8.265625 28.6875 -8.769531 29.8125 -9.78125 C 30.9375 -10.789062 31.5 -12.132812 31.5 -13.8125 L 45.375 -13.8125 C 45.375 -9.207031 43.625 -5.609375 40.125 -3.015625 C 36.625 -0.429688 31.519531 0.859375 24.8125 0.859375 C 17.757812 0.859375 12.289062 -0.78125 8.40625 -4.0625 C 4.53125 -7.34375 2.59375 -12.316406 2.59375 -18.984375 C 2.59375 -25.503906 4.484375 -30.441406 8.265625 -33.796875 C 12.054688 -37.160156 17.285156 -38.84375 23.953125 -38.84375 Z M 24.53125 -29.703125 C 20.019531 -29.703125 17.5 -27.566406 16.96875 -23.296875 L 30.921875 -23.296875 C 30.921875 -25.265625 30.359375 -26.820312 29.234375 -27.96875 C 28.109375 -29.125 26.539062 -29.703125 24.53125 -29.703125 Z M 24.53125 -29.703125 "/></g></g></g><g fill="#ff3131" fill-opacity="1"><g transform="translate(191.477704, 203.237711)"><g><path d="M 42.5 0 L 36.109375 -30.140625 L 35.8125 -30.140625 L 29.421875 0 L 11.9375 0 L 0.359375 -49.484375 L 16.90625 -49.484375 L 22.578125 -21.4375 L 22.875 -21.4375 L 28.484375 -49.484375 L 44.15625 -49.484375 L 50.125 -21.4375 L 50.421875 -21.4375 L 55.734375 -49.484375 L 71.5625 -49.484375 L 59.984375 0 Z M 42.5 0 "/></g></g></g><g fill="#ff3131" fill-opacity="1"><g transform="translate(263.395234, 203.237711)"><g><path d="M 23.953125 -38.84375 C 30.898438 -38.84375 36.207031 -37.210938 39.875 -33.953125 C 43.539062 -30.691406 45.375 -25.703125 45.375 -18.984375 L 45.375 -16.546875 L 16.90625 -16.546875 C 16.90625 -13.804688 17.515625 -11.738281 18.734375 -10.34375 C 19.953125 -8.957031 21.882812 -8.265625 24.53125 -8.265625 C 26.925781 -8.265625 28.6875 -8.769531 29.8125 -9.78125 C 30.9375 -10.789062 31.5 -12.132812 31.5 -13.8125 L 45.375 -13.8125 C 45.375 -9.207031 43.625 -5.609375 40.125 -3.015625 C 36.625 -0.429688 31.519531 0.859375 24.8125 0.859375 C 17.757812 0.859375 12.289062 -0.78125 8.40625 -4.0625 C 4.53125 -7.34375 2.59375 -12.316406 2.59375 -18.984375 C 2.59375 -25.503906 4.484375 -30.441406 8.265625 -33.796875 C 12.054688 -37.160156 17.285156 -38.84375 23.953125 -38.84375 Z M 24.53125 -29.703125 C 20.019531 -29.703125 17.5 -27.566406 16.96875 -23.296875 L 30.921875 -23.296875 C 30.921875 -25.265625 30.359375 -26.820312 29.234375 -27.96875 C 28.109375 -29.125 26.539062 -29.703125 24.53125 -29.703125 Z M 24.53125 -29.703125 "/></g></g></g><g fill="#ff3131" fill-opacity="1"><g transform="translate(311.364221, 203.237711)"><g><path d="M 18.703125 -34.453125 C 21.429688 -37.378906 24.976562 -38.84375 29.34375 -38.84375 C 34.476562 -38.84375 38.429688 -37.175781 41.203125 -33.84375 C 43.984375 -30.507812 45.375 -25.582031 45.375 -19.0625 C 45.375 -12.488281 43.984375 -7.523438 41.203125 -4.171875 C 38.429688 -0.816406 34.476562 0.859375 29.34375 0.859375 C 24.070312 0.859375 20.046875 -1.222656 17.265625 -5.390625 L 16.03125 0 L 4.390625 0 L 4.390625 -52.140625 L 18.703125 -52.140625 Z M 24.890625 -28.265625 C 22.773438 -28.265625 21.191406 -27.507812 20.140625 -26 C 19.085938 -24.488281 18.5625 -22.535156 18.5625 -20.140625 L 18.5625 -17.765625 C 18.5625 -15.367188 19.085938 -13.425781 20.140625 -11.9375 C 21.191406 -10.445312 22.773438 -9.703125 24.890625 -9.703125 C 29.003906 -9.703125 31.0625 -12.148438 31.0625 -17.046875 L 31.0625 -20.859375 C 31.0625 -25.796875 29.003906 -28.265625 24.890625 -28.265625 Z M 24.890625 -28.265625 "/></g></g></g></svg>