<svg xmlns="http://www.w3.org/2000/svg" xmlns:xlink="http://www.w3.org/1999/xlink" width="200" zoomAndPan="magnify" viewBox="0 0 150 37.5" height="50" preserveAspectRatio="xMidYMid meet" version="1.0"><defs><g/></defs><g fill="#ff3131" fill-opacity="1"><g transform="translate(0.986842, 28.264629)"><g><path d="M 12.453125 -21.671875 C 15.609375 -21.671875 18.101562 -20.878906 19.9375 -19.296875 C 21.78125 -17.722656 22.703125 -15.472656 22.703125 -12.546875 L 16.171875 -12.546875 C 16.171875 -13.785156 15.84375 -14.765625 15.1875 -15.484375 C 14.539062 -16.203125 13.617188 -16.5625 12.421875 -16.5625 C 11.035156 -16.5625 10.015625 -16.128906 9.359375 -15.265625 C 8.710938 -14.398438 8.390625 -13.191406 8.390625 -11.640625 L 8.390625 -9.65625 C 8.390625 -8.132812 8.710938 -6.929688 9.359375 -6.046875 C 10.015625 -5.171875 11.015625 -4.734375 12.359375 -4.734375 C 13.679688 -4.734375 14.679688 -5.070312 15.359375 -5.75 C 16.035156 -6.4375 16.375 -7.398438 16.375 -8.640625 L 22.703125 -8.640625 C 22.703125 -5.734375 21.804688 -3.503906 20.015625 -1.953125 C 18.234375 -0.398438 15.710938 0.375 12.453125 0.375 C 8.816406 0.375 6.0625 -0.550781 4.1875 -2.40625 C 2.320312 -4.269531 1.390625 -7.019531 1.390625 -10.65625 C 1.390625 -14.289062 2.320312 -17.035156 4.1875 -18.890625 C 6.0625 -20.742188 8.816406 -21.671875 12.453125 -21.671875 Z M 12.453125 -21.671875 "/></g></g></g><g fill="#ff3131" fill-opacity="1"><g transform="translate(25.082946, 28.264629)"><g><path d="M 2.078125 -18.265625 L 2.078125 -22.453125 L 8.234375 -22.453125 L 8.234375 -18.265625 Z M 2.078125 0 L 2.078125 -16.34375 L 8.234375 -16.34375 L 8.234375 0 Z M 2.078125 0 "/></g></g></g><g fill="#ff3131" fill-opacity="1"><g transform="translate(35.396577, 28.264629)"><g><path d="M 13.125 -16.71875 C 15.03125 -16.71875 16.457031 -16.191406 17.40625 -15.140625 C 18.351562 -14.085938 18.828125 -12.570312 18.828125 -10.59375 L 18.828125 0 L 12.671875 0 L 12.671875 -9.84375 C 12.671875 -10.550781 12.488281 -11.113281 12.125 -11.53125 C 11.757812 -11.957031 11.25 -12.171875 10.59375 -12.171875 C 9.832031 -12.171875 9.210938 -11.921875 8.734375 -11.421875 C 8.253906 -10.929688 8.015625 -10.320312 8.015625 -9.59375 L 8.015625 0 L 1.859375 0 L 1.859375 -16.34375 L 6.90625 -16.34375 L 7.3125 -13.875 C 7.945312 -14.738281 8.785156 -15.425781 9.828125 -15.9375 C 10.867188 -16.457031 11.96875 -16.71875 13.125 -16.71875 Z M 13.125 -16.71875 "/></g></g></g><g fill="#ff3131" fill-opacity="1"><g transform="translate(56.054802, 28.264629)"><g><path d="M 10.3125 -16.71875 C 13.300781 -16.71875 15.585938 -16.015625 17.171875 -14.609375 C 18.753906 -13.210938 19.546875 -11.066406 19.546875 -8.171875 L 19.546875 -7.125 L 7.28125 -7.125 C 7.28125 -5.945312 7.539062 -5.054688 8.0625 -4.453125 C 8.59375 -3.859375 9.425781 -3.5625 10.5625 -3.5625 C 11.59375 -3.5625 12.347656 -3.773438 12.828125 -4.203125 C 13.316406 -4.640625 13.5625 -5.222656 13.5625 -5.953125 L 19.546875 -5.953125 C 19.546875 -3.960938 18.789062 -2.410156 17.28125 -1.296875 C 15.769531 -0.179688 13.570312 0.375 10.6875 0.375 C 7.644531 0.375 5.285156 -0.332031 3.609375 -1.75 C 1.941406 -3.164062 1.109375 -5.304688 1.109375 -8.171875 C 1.109375 -10.984375 1.925781 -13.109375 3.5625 -14.546875 C 5.195312 -15.992188 7.445312 -16.71875 10.3125 -16.71875 Z M 10.5625 -12.796875 C 8.625 -12.796875 7.539062 -11.875 7.3125 -10.03125 L 13.3125 -10.03125 C 13.3125 -10.875 13.066406 -11.546875 12.578125 -12.046875 C 12.097656 -12.546875 11.425781 -12.796875 10.5625 -12.796875 Z M 10.5625 -12.796875 "/></g></g></g><g fill="#ff3131" fill-opacity="1"><g transform="translate(76.713026, 28.264629)"><g><path d="M 18.296875 0 L 15.546875 -12.96875 L 15.421875 -12.96875 L 12.671875 0 L 5.140625 0 L 0.15625 -21.3125 L 7.28125 -21.3125 L 9.71875 -9.234375 L 9.84375 -9.234375 L 12.265625 -21.3125 L 19.015625 -21.3125 L 21.578125 -9.234375 L 21.703125 -9.234375 L 24 -21.3125 L 30.8125 -21.3125 L 25.828125 0 Z M 18.296875 0 "/></g></g></g><g fill="#ff3131" fill-opacity="1"><g transform="translate(107.684881, 28.264629)"><g><path d="M 10.3125 -16.71875 C 13.300781 -16.71875 15.585938 -16.015625 17.171875 -14.609375 C 18.753906 -13.210938 19.546875 -11.066406 19.546875 -8.171875 L 19.546875 -7.125 L 7.28125 -7.125 C 7.28125 -5.945312 7.539062 -5.054688 8.0625 -4.453125 C 8.59375 -3.859375 9.425781 -3.5625 10.5625 -3.5625 C 11.59375 -3.5625 12.347656 -3.773438 12.828125 -4.203125 C 13.316406 -4.640625 13.5625 -5.222656 13.5625 -5.953125 L 19.546875 -5.953125 C 19.546875 -3.960938 18.789062 -2.410156 17.28125 -1.296875 C 15.769531 -0.179688 13.570312 0.375 10.6875 0.375 C 7.644531 0.375 5.285156 -0.332031 3.609375 -1.75 C 1.941406 -3.164062 1.109375 -5.304688 1.109375 -8.171875 C 1.109375 -10.984375 1.925781 -13.109375 3.5625 -14.546875 C 5.195312 -15.992188 7.445312 -16.71875 10.3125 -16.71875 Z M 10.5625 -12.796875 C 8.625 -12.796875 7.539062 -11.875 7.3125 -10.03125 L 13.3125 -10.03125 C 13.3125 -10.875 13.066406 -11.546875 12.578125 -12.046875 C 12.097656 -12.546875 11.425781 -12.796875 10.5625 -12.796875 Z M 10.5625 -12.796875 "/></g></g></g><g fill="#ff3131" fill-opacity="1"><g transform="translate(128.343106, 28.264629)"><g><path d="M 8.046875 -14.828125 C 9.222656 -16.085938 10.753906 -16.71875 12.640625 -16.71875 C 14.847656 -16.71875 16.550781 -16 17.75 -14.5625 C 18.945312 -13.132812 19.546875 -11.015625 19.546875 -8.203125 C 19.546875 -5.378906 18.945312 -3.242188 17.75 -1.796875 C 16.550781 -0.347656 14.847656 0.375 12.640625 0.375 C 10.367188 0.375 8.632812 -0.523438 7.4375 -2.328125 L 6.90625 0 L 1.890625 0 L 1.890625 -22.453125 L 8.046875 -22.453125 Z M 10.71875 -12.171875 C 9.8125 -12.171875 9.128906 -11.84375 8.671875 -11.1875 C 8.210938 -10.539062 7.984375 -9.703125 7.984375 -8.671875 L 7.984375 -7.65625 C 7.984375 -6.613281 8.210938 -5.773438 8.671875 -5.140625 C 9.128906 -4.503906 9.8125 -4.1875 10.71875 -4.1875 C 12.488281 -4.1875 13.375 -5.238281 13.375 -7.34375 L 13.375 -8.984375 C 13.375 -11.109375 12.488281 -12.171875 10.71875 -12.171875 Z M 10.71875 -12.171875 "/></g></g></g></svg>