<svg xmlns="http://www.w3.org/2000/svg" xmlns:xlink="http://www.w3.org/1999/xlink" width="500" zoomAndPan="magnify" viewBox="0 0 375 92.999996" height="124" preserveAspectRatio="xMidYMid meet" version="1.0"><defs><g/></defs><g fill="#9f161a" fill-opacity="1"><g transform="translate(0.00000806452, 71.607238)"><g><path d="M 31.546875 -54.921875 C 39.546875 -54.921875 45.875 -52.921875 50.53125 -48.921875 C 55.1875 -44.921875 57.515625 -39.207031 57.515625 -31.78125 L 40.953125 -31.78125 C 40.953125 -34.914062 40.128906 -37.398438 38.484375 -39.234375 C 36.835938 -41.066406 34.5 -41.984375 31.46875 -41.984375 C 27.957031 -41.984375 25.378906 -40.882812 23.734375 -38.6875 C 22.085938 -36.488281 21.265625 -33.425781 21.265625 -29.5 L 21.265625 -24.484375 C 21.265625 -20.609375 22.085938 -17.554688 23.734375 -15.328125 C 25.378906 -13.109375 27.90625 -12 31.3125 -12 C 34.65625 -12 37.191406 -12.863281 38.921875 -14.59375 C 40.648438 -16.320312 41.515625 -18.753906 41.515625 -21.890625 L 57.515625 -21.890625 C 57.515625 -14.515625 55.25 -8.863281 50.71875 -4.9375 C 46.195312 -1.019531 39.804688 0.9375 31.546875 0.9375 C 22.335938 0.9375 15.363281 -1.414062 10.625 -6.125 C 5.894531 -10.832031 3.53125 -17.789062 3.53125 -27 C 3.53125 -36.195312 5.894531 -43.148438 10.625 -47.859375 C 15.363281 -52.566406 22.335938 -54.921875 31.546875 -54.921875 Z M 31.546875 -54.921875 "/></g></g></g><g fill="#9f161a" fill-opacity="1"><g transform="translate(61.046468, 71.607238)"><g><path d="M 5.25 -46.296875 L 5.25 -56.890625 L 20.875 -56.890625 L 20.875 -46.296875 Z M 5.25 0 L 5.25 -41.4375 L 20.875 -41.4375 L 20.875 0 Z M 5.25 0 "/></g></g></g><g fill="#9f161a" fill-opacity="1"><g transform="translate(87.175615, 71.607238)"><g><path d="M 33.265625 -42.375 C 38.078125 -42.375 41.6875 -41.039062 44.09375 -38.375 C 46.5 -35.707031 47.703125 -31.863281 47.703125 -26.84375 L 47.703125 0 L 32.09375 0 L 32.09375 -24.953125 C 32.09375 -26.734375 31.632812 -28.160156 30.71875 -29.234375 C 29.800781 -30.304688 28.507812 -30.84375 26.84375 -30.84375 C 24.90625 -30.84375 23.332031 -30.210938 22.125 -28.953125 C 20.925781 -27.703125 20.328125 -26.160156 20.328125 -24.328125 L 20.328125 0 L 4.703125 0 L 4.703125 -41.4375 L 17.5 -41.4375 L 18.515625 -35.15625 C 20.140625 -37.351562 22.269531 -39.101562 24.90625 -40.40625 C 27.550781 -41.71875 30.335938 -42.375 33.265625 -42.375 Z M 33.265625 -42.375 "/></g></g></g><g fill="#9f161a" fill-opacity="1"><g transform="translate(139.512353, 71.607238)"><g><path d="M 26.125 -42.375 C 33.71875 -42.375 39.515625 -40.59375 43.515625 -37.03125 C 47.515625 -33.476562 49.515625 -28.039062 49.515625 -20.71875 L 49.515625 -18.046875 L 18.4375 -18.046875 C 18.4375 -15.066406 19.101562 -12.816406 20.4375 -11.296875 C 21.769531 -9.785156 23.878906 -9.03125 26.765625 -9.03125 C 29.378906 -9.03125 31.300781 -9.578125 32.53125 -10.671875 C 33.757812 -11.765625 34.375 -13.226562 34.375 -15.0625 L 49.515625 -15.0625 C 49.515625 -10.039062 47.601562 -6.117188 43.78125 -3.296875 C 39.96875 -0.472656 34.398438 0.9375 27.078125 0.9375 C 19.378906 0.9375 13.410156 -0.851562 9.171875 -4.4375 C 4.941406 -8.019531 2.828125 -13.445312 2.828125 -20.71875 C 2.828125 -27.832031 4.890625 -33.21875 9.015625 -36.875 C 13.148438 -40.539062 18.851562 -42.375 26.125 -42.375 Z M 26.765625 -32.40625 C 21.835938 -32.40625 19.085938 -30.078125 18.515625 -25.421875 L 33.734375 -25.421875 C 33.734375 -27.566406 33.117188 -29.265625 31.890625 -30.515625 C 30.660156 -31.773438 28.953125 -32.40625 26.765625 -32.40625 Z M 26.765625 -32.40625 "/></g></g></g><g fill="#9f161a" fill-opacity="1"><g transform="translate(191.849091, 71.607238)"><g><path d="M 46.375 0 L 39.390625 -32.875 L 39.078125 -32.875 L 32.09375 0 L 13.03125 0 L 0.390625 -53.984375 L 18.4375 -53.984375 L 24.640625 -23.390625 L 24.953125 -23.390625 L 31.078125 -53.984375 L 48.1875 -53.984375 L 54.6875 -23.390625 L 55 -23.390625 L 60.8125 -53.984375 L 78.078125 -53.984375 L 65.4375 0 Z M 46.375 0 "/></g></g></g><g fill="#9f161a" fill-opacity="1"><g transform="translate(270.314974, 71.607238)"><g><path d="M 26.125 -42.375 C 33.71875 -42.375 39.515625 -40.59375 43.515625 -37.03125 C 47.515625 -33.476562 49.515625 -28.039062 49.515625 -20.71875 L 49.515625 -18.046875 L 18.4375 -18.046875 C 18.4375 -15.066406 19.101562 -12.816406 20.4375 -11.296875 C 21.769531 -9.785156 23.878906 -9.03125 26.765625 -9.03125 C 29.378906 -9.03125 31.300781 -9.578125 32.53125 -10.671875 C 33.757812 -11.765625 34.375 -13.226562 34.375 -15.0625 L 49.515625 -15.0625 C 49.515625 -10.039062 47.601562 -6.117188 43.78125 -3.296875 C 39.96875 -0.472656 34.398438 0.9375 27.078125 0.9375 C 19.378906 0.9375 13.410156 -0.851562 9.171875 -4.4375 C 4.941406 -8.019531 2.828125 -13.445312 2.828125 -20.71875 C 2.828125 -27.832031 4.890625 -33.21875 9.015625 -36.875 C 13.148438 -40.539062 18.851562 -42.375 26.125 -42.375 Z M 26.765625 -32.40625 C 21.835938 -32.40625 19.085938 -30.078125 18.515625 -25.421875 L 33.734375 -25.421875 C 33.734375 -27.566406 33.117188 -29.265625 31.890625 -30.515625 C 30.660156 -31.773438 28.953125 -32.40625 26.765625 -32.40625 Z M 26.765625 -32.40625 "/></g></g></g><g fill="#9f161a" fill-opacity="1"><g transform="translate(322.651711, 71.607238)"><g><path d="M 20.40625 -37.59375 C 23.382812 -40.78125 27.253906 -42.375 32.015625 -42.375 C 37.609375 -42.375 41.921875 -40.554688 44.953125 -36.921875 C 47.992188 -33.285156 49.515625 -27.910156 49.515625 -20.796875 C 49.515625 -13.628906 47.992188 -8.210938 44.953125 -4.546875 C 41.921875 -0.890625 37.609375 0.9375 32.015625 0.9375 C 26.265625 0.9375 21.867188 -1.335938 18.828125 -5.890625 L 17.5 0 L 4.78125 0 L 4.78125 -56.890625 L 20.40625 -56.890625 Z M 27.15625 -30.84375 C 24.851562 -30.84375 23.125 -30.015625 21.96875 -28.359375 C 20.820312 -26.710938 20.25 -24.582031 20.25 -21.96875 L 20.25 -19.375 C 20.25 -16.757812 20.820312 -14.640625 21.96875 -13.015625 C 23.125 -11.398438 24.851562 -10.59375 27.15625 -10.59375 C 31.65625 -10.59375 33.90625 -13.257812 33.90625 -18.59375 L 33.90625 -22.75 C 33.90625 -28.144531 31.65625 -30.84375 27.15625 -30.84375 Z M 27.15625 -30.84375 "/></g></g></g></svg>